<?xml version="1.0" encoding="UTF-8"?>
<svg version="1.1" xmlns="http://www.w3.org/2000/svg" width="1162" height="264">
<path d="M0 0 C5.5126588 1.298757 9.54546054 3.29279505 14.1875 6.5 C14.83170898 6.93779785 15.47591797 7.3755957 16.13964844 7.82666016 C32.10652993 18.85553369 32.10652993 18.85553369 37 26 C39.71720257 24.93252756 40.97754829 24.02890841 42.79296875 21.69140625 C50.14356513 12.72758164 63.1721454 4.33114184 74 0 C78.5108367 1.50361223 79.98821709 5.01352506 82.05224609 9.06591797 C83.13572751 11.34087732 84.1682133 13.63310887 85.1875 15.9375 C85.54263672 16.71029297 85.89777344 17.48308594 86.26367188 18.27929688 C88.32528877 22.90717693 89.54936949 26.94890274 90 32 C91.0828125 31.67257813 92.165625 31.34515625 93.28125 31.0078125 C98.68163119 29.6577172 103.96526847 29.78057545 109.5 29.875 C110.51320312 29.88402344 111.52640625 29.89304687 112.5703125 29.90234375 C115.04712801 29.92570993 117.52343379 29.95846832 120 30 C120.0754071 34.30091146 120.12917959 38.60145026 120.16479492 42.90283203 C120.17967624 44.3592806 120.19998796 45.81568608 120.22631836 47.27197266 C120.45347005 60.1795334 118.9949261 72.07994384 114 84.125 C113.2575 85.95417969 113.2575 85.95417969 112.5 87.8203125 C111.2132535 90.54794701 109.92405131 92.69801004 108 95 C108.73863281 95.29132813 109.47726563 95.58265625 110.23828125 95.8828125 C140.10801015 107.95215658 140.10801015 107.95215658 144.921875 117.90625 C145 120 145 120 143.55859375 122.21875 C139.62886621 126.4451973 135.98666381 130.00800171 131 133 C130.25105469 133.61359375 129.50210938 134.2271875 128.73046875 134.859375 C112.36283841 147.69122253 92.63276465 153.55709282 72 152 C57.8748528 150.13854649 48.05156201 143.81171996 38 134 C37.52949219 134.47050781 37.05898437 134.94101563 36.57421875 135.42578125 C33.78710938 138.21289062 33.78710938 138.21289062 31 141 C30.49082031 141.57105469 29.98164062 142.14210937 29.45703125 142.73046875 C28 144 28 144 25 144 C24.67 144.66 24.34 145.32 24 146 C10.32751163 153.97302283 -7.47517919 153.77439579 -22.4609375 150.10546875 C-37.81456993 145.30957694 -51.71533588 137.55989983 -63 126 C-63.81597656 125.23429687 -63.81597656 125.23429687 -64.6484375 124.453125 C-66.15435293 123.02497985 -67.58272722 121.51615227 -69 120 C-69 119.01 -69 118.02 -69 117 C-67.12153314 115.26696283 -65.29517084 113.7631219 -63.25 112.25 C-62.3674353 111.58738159 -62.3674353 111.58738159 -61.46704102 110.91137695 C-52.28207447 104.13308081 -42.64734242 99.09658388 -32 95 C-32.721875 93.989375 -33.44375 92.97875 -34.1875 91.9375 C-43.04757137 77.74124928 -44.32422661 61.07954101 -44.125 44.8125 C-44.11494179 43.36914689 -44.105821 41.92578694 -44.09765625 40.48242188 C-44.07588691 36.98813606 -44.04151675 33.49411363 -44 30 C-40.50007197 29.94130668 -37.0002728 29.90617291 -33.5 29.875 C-32.51773438 29.85824219 -31.53546875 29.84148437 -30.5234375 29.82421875 C-24.64081335 29.78500126 -19.63635497 30.29567362 -14 32 C-13.835 30.700625 -13.67 29.40125 -13.5 28.0625 C-12.44599876 22.73139229 -10.42258787 18.07617474 -8.125 13.1875 C-7.78533203 12.45861572 -7.44566406 11.72973145 -7.09570312 10.97875977 C-5.12440157 6.89675747 -3.01097118 3.43628774 0 0 Z M3 10 C1.69796813 12.49505641 0.40839734 14.99537682 -0.875 17.5 C-1.23980469 18.19609375 -1.60460937 18.8921875 -1.98046875 19.609375 C-4.39478122 24.35020677 -5.88632082 28.79501519 -7 34 C-6.11699219 34.29132813 -5.23398438 34.58265625 -4.32421875 34.8828125 C5.50598349 38.24049705 15.14244653 41.95529689 23 49 C25.89932357 46.60490662 26.50168276 44.68754757 27 41 C27.66 41 28.32 41 29 41 C30.32 38.36 31.64 35.72 33 33 C27.00884092 26.81060404 21.15531189 20.85941457 14 16 C13.20078125 15.44183594 12.4015625 14.88367188 11.578125 14.30859375 C7.62320382 11.21077835 7.62320382 11.21077835 3 10 Z M66 13 C66 13.66 66 14.32 66 15 C65.44828125 15.08121094 64.8965625 15.16242188 64.328125 15.24609375 C56.10218611 17.90986255 48.85265914 26.84548451 43 33 C44.78126333 36.6344969 46.70197866 40.18884937 48.625 43.75 C48.94984375 44.35199219 49.2746875 44.95398438 49.609375 45.57421875 C50.40570585 47.04977297 51.20277839 48.52492686 52 50 C52.99 49.175 53.98 48.35 55 47.5 C59.11945449 44.40488213 63.47316877 42.05524011 68.0625 39.75 C68.73474609 39.40904297 69.40699219 39.06808594 70.09960938 38.71679688 C74.3300695 36.63671726 78.43120414 35.16447853 83 34 C81.51244479 28.56673096 80.08733436 23.75964047 77 19 C75.93640366 16.69047653 74.97513343 14.34918507 74 12 C73.67 11.34 73.34 10.68 73 10 C70.05728556 10 68.38499757 11.36815955 66 13 Z M-37 38 C-37.56002316 53.41100768 -36.10914051 68.66548076 -30 83 C-29.56429687 84.04929688 -29.12859375 85.09859375 -28.6796875 86.1796875 C-27.04143564 89.41502911 -25.75066692 91.62463206 -23 94 C-18.20131393 94.91979196 -13.82144018 94.66202854 -9 94 C-9.24234375 93.44054687 -9.4846875 92.88109375 -9.734375 92.3046875 C-10.8828932 89.55707857 -11.94812311 86.7860523 -13 84 C-13.3815625 83.030625 -13.763125 82.06125 -14.15625 81.0625 C-18.673582 67.89770388 -18.3589855 52.63608694 -16 39 C-20.4378561 37.88834768 -24.76956386 37.88472237 -29.3125 37.9375 C-30.42334961 37.94426758 -30.42334961 37.94426758 -31.55664062 37.95117188 C-33.37112899 37.96287825 -35.18557534 37.98081102 -37 38 Z M92 39 C92.15855469 39.928125 92.31710938 40.85625 92.48046875 41.8125 C94.97472198 59.46277506 93.36577435 76.19798179 85 92 C85.33 92.66 85.66 93.32 86 94 C93.91104419 95.16561705 93.91104419 95.16561705 101.0234375 92.453125 C102.68277861 90.04751937 103.84944728 87.6871215 105 85 C105.44730469 84.04480469 105.89460938 83.08960938 106.35546875 82.10546875 C112.46050308 67.87232421 113.51673023 53.29138711 113 38 C110.4374282 37.97289877 107.87514635 37.95311229 105.3125 37.9375 C104.2306543 37.92493164 104.2306543 37.92493164 103.12695312 37.91210938 C99.28444618 37.89456368 95.73360474 38.06475779 92 39 Z M-9 41 C-12.3430857 57.33491466 -11.03406192 75.52819253 -2.875 90.1875 C0.88893263 95.63593353 4.85822291 97.11908077 11 99 C12.49466849 99.69683869 13.97560119 100.42430283 15.4375 101.1875 C18.83775263 103.02832891 18.83775263 103.02832891 22 104 C21.79503906 103.2265625 21.59007813 102.453125 21.37890625 101.65625 C18.66248311 91.15448015 16.35827657 80.58372352 18.953125 69.828125 C21.07347679 62.18738756 21.07347679 62.18738756 20.015625 54.6328125 C17.82030252 52.52491437 15.7353537 51.35876109 13 50 C12.34660645 49.66145996 11.69321289 49.32291992 11.02001953 48.97412109 C1.41366323 43.84498574 1.41366323 43.84498574 -9 41 Z M37 41 C36.02464934 42.68163907 35.05219611 44.36505528 34.09765625 46.05859375 C33.1251067 47.77872588 32.1268886 49.48428938 31.125 51.1875 C29.6812098 53.91075416 29.6812098 53.91075416 30.8125 56.375 C31.4003125 57.179375 31.4003125 57.179375 32 58 C32.66 58 33.32 58 34 58 C34.66 59.65 35.32 61.3 36 63 C39.83125 63.4 39.83125 63.4 41.75 61.6875 C43.29761378 59.9482276 43.29761378 59.9482276 43 57 C43.99 56.67 44.98 56.34 46 56 C44.71141093 50.37706588 42.66700794 45.52499377 39 41 C38.34 41 37.68 41 37 41 Z M74.3125 44.6875 C73.52166016 45.02716797 72.73082031 45.36683594 71.91601562 45.71679688 C66.79306859 47.98003111 62.36745079 50.47446743 58 54 C58 54.66 58 55.32 58 56 C57.01 56.33 56.02 56.66 55 57 C55.2165625 57.92039062 55.433125 58.84078125 55.65625 59.7890625 C58.95743307 74.79721885 58.04200031 88.04349845 55 103 C55.67160156 102.72285156 56.34320313 102.44570312 57.03515625 102.16015625 C59.18767453 101.31786649 61.36672694 100.54242402 63.55859375 99.80859375 C70.49252894 97.41843697 76.28174234 95.34607792 79.9296875 88.56640625 C84.29914771 78.08926991 86.17228657 68.80149089 86.125 57.5 C86.12886719 56.57574219 86.13273437 55.65148437 86.13671875 54.69921875 C86.13002384 50.0194739 85.96646438 45.60221134 85 41 C81.21236276 41 77.73013209 43.17308387 74.3125 44.6875 Z M27 64 C25.25822425 69.26679811 24.6802816 73.84296936 24.75 79.375 C24.75386719 80.1187085 24.75773437 80.86241699 24.76171875 81.62866211 C24.84605928 86.98955708 25.49692043 91.83316399 27 97 C27.33 97 27.66 97 28 97 C28.27263672 95.2984375 28.27263672 95.2984375 28.55078125 93.5625 C28.80426521 92.04159623 29.05819541 90.52076678 29.3125 89 C29.43044922 88.25621094 29.54839844 87.51242188 29.66992188 86.74609375 C30.33617197 82.81692654 31.19060274 79.38322359 32.77734375 75.71875 C34.37784998 72.17806065 34.37784998 72.17806065 33.015625 69.46875 C32.43296875 68.8190625 31.8503125 68.169375 31.25 67.5 C30.67765625 66.8296875 30.1053125 66.159375 29.515625 65.46875 C28.23206792 63.88401424 28.23206792 63.88401424 27 64 Z M48 64 C45.37793112 66.7343489 43.40751826 69.47329693 42 73 C42.49468654 75.70942995 43.51263226 77.7121797 44.765625 80.16015625 C47.07267354 85.46782806 47.37452527 91.28842814 48 97 C51.11121684 91.39980969 51.18199777 85.91955296 51.1875 79.625 C51.19974609 78.89539063 51.21199219 78.16578125 51.22460938 77.4140625 C51.2375925 72.56702885 50.53535264 68.59998934 49 64 C48.67 64 48.34 64 48 64 Z M37 84 C34.67698172 94.12172252 34.67698172 101.87827748 37 112 C37.66 112 38.32 112 39 112 C41.32301828 101.87827748 41.32301828 94.12172252 39 84 C38.34 84 37.68 84 37 84 Z M-15 101 C-14.64872967 103.76776795 -14.18638916 104.82856799 -12.1015625 106.74609375 C-3.62906024 112.53251879 4.58368682 117.41039737 15 118 C12.72338466 116.15025004 10.44605524 114.32015255 8.0625 112.609375 C4.69948908 110.18902623 2.00256522 108.19242425 -0.25 104.6875 C-4.49777747 100.53626293 -9.26822008 101.01828319 -15 101 Z M86.6328125 100.97265625 C81.62856177 101.07217261 81.62856177 101.07217261 77.3671875 103.37890625 C76.43248607 104.57265351 75.52450791 105.78768294 74.640625 107.01953125 C71.99652181 110.21134153 68.60426976 112.24686987 65.171875 114.51953125 C62.92025064 115.95574847 62.92025064 115.95574847 61 118 C73.42829583 117.28298293 83.11840953 111.48166895 92 103 C92.33 102.34 92.66 101.68 93 101 C90.8775846 101 88.75508632 100.99717096 86.6328125 100.97265625 Z M99.8046875 104.58984375 C98.84949219 105.75193359 98.84949219 105.75193359 97.875 106.9375 C87.01708348 118.75076619 72.61918376 124.85636541 56.81787109 125.69165039 C52.21217473 125.86597519 47.60884765 125.96962377 43 126 C50.38680761 136.33012127 58.28969349 141.62099416 71 144 C93.18519991 146.40258033 111.53726277 138.04035573 129 125 C131.02445301 123.35981283 133.0137809 121.68680398 135 120 C129.58680787 114.26838481 123.62742152 110.61137993 116.5625 107.3125 C115.93279297 107.00505859 115.30308594 106.69761719 114.65429688 106.38085938 C107.20472137 102.69629523 107.20472137 102.69629523 99.8046875 104.58984375 Z M-59 119 C-47.28359874 131.92844277 -28.38972076 142.53232964 -10.83422852 144.20654297 C-8.5935575 144.30246168 -6.36762633 144.32907468 -4.125 144.3125 C-3.33416016 144.30758545 -2.54332031 144.3026709 -1.72851562 144.29760742 C4.27751494 144.17731408 9.4514274 143.40438146 15 141 C16.25683594 140.50693359 16.25683594 140.50693359 17.5390625 140.00390625 C24.25239431 137.0731617 28.65914581 132.86864087 33 127 C33 126.67 33 126.34 33 126 C32.38181396 125.99589111 31.76362793 125.99178223 31.12670898 125.98754883 C18.05583369 125.83591454 7.17223621 124.82968669 -5 120 C-5.66 120 -6.32 120 -7 120 C-7 119.34 -7 118.68 -7 118 C-8.62514074 116.8946653 -10.30298735 115.86646119 -12 114.875 C-16.84036498 111.91214772 -20.56705607 108.72068104 -24.34375 104.50390625 C-31.67161813 97.85006373 -53.31752662 113.64223939 -59 119 Z " fill="#FFFFFF" transform="translate(95,59)"/>
<path d="M0 0 C0.78922852 0.19867676 1.57845703 0.39735352 2.39160156 0.60205078 C14.37899574 3.69983847 25.1944838 7.98434838 36 14 C36.60972656 14.33241699 37.21945313 14.66483398 37.84765625 15.00732422 C45.12871083 18.98792236 45.12871083 18.98792236 48 21 C48 21.66 48 22.32 48 23 C48.5775 23.28875 49.155 23.5775 49.75 23.875 C50.4925 24.24625 51.235 24.6175 52 25 C52.63550781 25.27457031 53.27101562 25.54914062 53.92578125 25.83203125 C56.33699652 27.18975887 57.67676875 28.6857969 59.4375 30.8125 C62.76020795 34.73357697 66.27673387 38.34131386 69.98046875 41.90625 C73.56152341 45.40250738 76.6363729 48.53537104 79 53 C79.66 53.66 80.32 54.32 81 55 C81.71408334 56.98356483 82.38617742 58.98315437 83 61 C83.66 61 84.32 61 85 61 C85.5878125 62.4540625 85.5878125 62.4540625 86.1875 63.9375 C87.36057243 66.71669497 88.72273119 69.19098504 90.3125 71.75 C105.24717855 98.33552717 106.76822818 133.56363375 98.80029297 162.30566406 C95.74133327 172.60422394 92.05352827 182.71531181 86.9453125 192.1875 C85.86401419 194.14409004 85.86401419 194.14409004 85 197 C84.34 197 83.68 197 83 197 C82.73445312 197.72574219 82.46890625 198.45148438 82.1953125 199.19921875 C77.33739394 210.58198871 67.19747856 219.08294103 58.45532227 227.47875977 C56.89929301 228.95545884 56.89929301 228.95545884 56 231 C54.34695214 232.02235539 52.67767651 233.01858301 51 234 C49.28072032 235.25598469 47.57285706 236.52770369 45.875 237.8125 C18.71878823 257.60186709 -16.91331672 264.92383533 -49.98046875 260.28125 C-60.30560035 258.53803395 -70.21994273 255.71756563 -80 252 C-81.00933594 251.63261719 -82.01867187 251.26523438 -83.05859375 250.88671875 C-89.11083342 248.54780541 -94.67586201 245.60607023 -100.25 242.3125 C-100.91902344 241.9196582 -101.58804688 241.52681641 -102.27734375 241.12207031 C-103.88946093 240.14111222 -105.45064234 239.07735389 -107 238 C-107 237.34 -107 236.68 -107 236 C-107.5775 235.71125 -108.155 235.4225 -108.75 235.125 C-109.86375 234.568125 -109.86375 234.568125 -111 234 C-111.70125 233.690625 -112.4025 233.38125 -113.125 233.0625 C-115 232 -115 232 -117 229 C-117.78375 228.54625 -118.5675 228.0925 -119.375 227.625 C-122.32898302 225.79634384 -123.90753503 223.74185065 -126 221 C-126.66 220.67 -127.32 220.34 -128 220 C-128.391875 219.319375 -128.78375 218.63875 -129.1875 217.9375 C-130.74680545 215.41034979 -132.27294788 213.49743009 -134.25 211.3125 C-146.36393151 197.62401135 -153.50145996 181.8086483 -158.35058594 164.33203125 C-158.7658643 162.84077601 -159.19491667 161.35324452 -159.64160156 159.87109375 C-166.28635644 137.67276842 -164.1822216 114.02248692 -158 92 C-157.8237207 91.31373535 -157.64744141 90.6274707 -157.46582031 89.92041016 C-153.1774237 73.25900495 -143.54399321 55.1350643 -131.125 43.125 C-128.78571015 41.10248645 -128.78571015 41.10248645 -128 38 C-125.32909026 35.01486558 -122.52109552 32.59419009 -119.25 30.3125 C-115.99364953 28.37854636 -115.99364953 28.37854636 -115 26 C-113.33779419 24.99260254 -111.66979326 23.99477045 -110 23 C-108.74223498 22.05188084 -107.49289849 21.09252577 -106.25 20.125 C-102.72420159 17.43899478 -99.08522482 15.25557664 -95.17578125 13.17578125 C-92.96126916 12.01735819 -92.96126916 12.01735819 -90.8046875 10.5703125 C-86.96120008 8.41838779 -82.96545637 7.007802 -78.8125 5.5625 C-77.93770996 5.25683105 -77.06291992 4.95116211 -76.16162109 4.63623047 C-51.83309306 -3.62802379 -25.10613345 -6.46532312 0 0 Z M-103 29 C-103 29.66 -103 30.32 -103 31 C-103.53625 31.061875 -104.0725 31.12375 -104.625 31.1875 C-108.17026157 32.40035264 -110.2592392 34.44610926 -113 37 C-113 37.66 -113 38.32 -113 39 C-113.56460938 39.06960937 -114.12921875 39.13921875 -114.7109375 39.2109375 C-126.93290826 43.42397179 -136.96481662 65.15123608 -142.30200195 76.01391602 C-147.5652251 87.17064786 -150.82660729 98.87155677 -153 111 C-153.13277344 111.73992187 -153.26554688 112.47984375 -153.40234375 113.2421875 C-156.97030483 138.36454362 -151.35470989 164.56371757 -140 187 C-139.34 187 -138.68 187 -138 187 C-137.83177734 187.84691406 -137.83177734 187.84691406 -137.66015625 188.7109375 C-134.42523048 199.92789905 -124.66944137 209.8568879 -116.01953125 217.1953125 C-114.26775563 218.76072902 -112.90678164 220.25895975 -111.5 222.125 C-108.15956102 225.96650483 -104.30113478 228.33635308 -100 231 C-99.37222656 231.40992188 -98.74445313 231.81984375 -98.09765625 232.2421875 C-96.09018347 233.54089082 -94.0536882 234.77561743 -92 236 C-91.10152344 236.5465625 -90.20304687 237.093125 -89.27734375 237.65625 C-63.80081682 252.34309738 -29.60376224 256.8993987 -1.12792969 249.59521484 C11.16449726 246.15683291 22.22419256 241.87249639 33 235 C34.51591176 234.19894964 36.03653214 233.40672389 37.5625 232.625 C45.93035363 227.9745202 52.8874816 221.28345667 59.6875 214.625 C60.21706299 214.11316162 60.74662598 213.60132324 61.29223633 213.07397461 C64.40434299 210.12109874 64.40434299 210.12109874 65 206 C65.56203125 205.81566406 66.1240625 205.63132813 66.703125 205.44140625 C70.06384595 203.33238239 71.73829012 200.26032232 73.75 196.9375 C74.18393066 196.22795166 74.61786133 195.51840332 75.06494141 194.78735352 C93.82155052 163.49314281 97.66552399 129.79177183 89.375 94.5 C82.91516814 71.6307102 67.46468511 45.04248275 47 32 C46.01 32 45.02 32 44 32 C43.67 31.01 43.34 30.02 43 29 C4.55017169 -1.92703582 -64.86602111 -4.25971091 -103 29 Z " fill="#FFFFFF" transform="translate(163,3)"/>
<path d="M0 0 C4.95 0 9.9 0 15 0 C15 10.23 15 20.46 15 31 C17.31 29.35 19.62 27.7 22 26 C25.64043263 24.78652246 29.02055186 24.7775028 32.8125 24.75 C33.86147461 24.7190625 33.86147461 24.7190625 34.93164062 24.6875 C41.11732575 24.64120862 44.97895541 26.26767606 49.625 30.25 C58.67964442 40.73432512 58.77067289 52.28928976 58.19091797 65.56591797 C57.55939693 73.61740737 54.27224678 79.42061498 48.9765625 85.34375 C44.05815797 89.46510083 39.41959976 90.52911469 33.125 90.4375 C32.41899658 90.43210205 31.71299316 90.4267041 30.9855957 90.42114258 C23.71473573 90.20875053 19.03848542 88.2805748 14 83 C13.01 85.31 12.02 87.62 11 90 C2.42 90 -6.16 90 -15 90 C-18.96 79.11 -18.96 79.11 -23 68 C-33.23 68 -43.46 68 -54 68 C-56.64 75.26 -59.28 82.52 -62 90 C-67.28 90 -72.56 90 -78 90 C-73.40145988 75.8659271 -68.32242693 61.9622572 -63.0625 48.0625 C-61.51054071 43.94966259 -59.96037015 39.83615179 -58.41015625 35.72265625 C-58.03734528 34.73447906 -57.6645343 33.74630188 -57.28042603 32.72817993 C-53.80377677 23.50370975 -50.39081937 14.25631564 -47 5 C-41.39 5 -35.78 5 -30 5 C-22.67032371 24.20934232 -15.46035769 43.46128421 -8.30859375 62.73754883 C-7.80302696 64.09931999 -7.80302696 64.09931999 -7.2872467 65.48860168 C-6.65257914 67.19833596 -6.01846138 68.90827447 -5.38499451 70.61845398 C-5.0999556 71.38631729 -4.81491669 72.1541806 -4.52124023 72.9453125 C-4.27462143 73.61062988 -4.02800262 74.27594727 -3.77391052 74.96142578 C-2.87887152 77.3190671 -1.93657979 79.65855051 -1 82 C-0.67 54.94 -0.34 27.88 0 0 Z M-39 20 C-42.63 31.22 -46.26 42.44 -50 54 C-42.41 54 -34.82 54 -27 54 C-29.32110325 45.35285892 -29.32110325 45.35285892 -32.04296875 36.89453125 C-32.39423828 35.89228516 -32.74550781 34.89003906 -33.10742188 33.85742188 C-33.46384766 32.85259766 -33.82027344 31.84777344 -34.1875 30.8125 C-34.55552734 29.76513672 -34.92355469 28.71777344 -35.30273438 27.63867188 C-36.19841262 25.09122337 -37.09753816 22.54505148 -38 20 C-38.33 20 -38.66 20 -39 20 Z M17 42 C14.41776804 46.73409192 14.63273387 51.5573322 14.625 56.8125 C14.60050781 57.67681641 14.57601562 58.54113281 14.55078125 59.43164062 C14.52347272 65.46227544 15.60478707 69.96066684 19 75 C22.12874669 77.94470277 24.84535754 78.21473189 29 78.375 C33.15464246 78.21473189 35.87125331 77.94470277 39 75 C44.10431184 68.22897408 44.5388858 59.57125007 43.74609375 51.375 C42.83362744 46.50851303 41.14275704 42.90463753 38 39 C31.03504838 34.35669892 22.27051705 35.75859824 17 42 Z " fill="#FFFFFF" transform="translate(881,45)"/>
<path d="M0 0 C279.18 0 558.36 0 846 0 C846 1.98 846 3.96 846 6 C566.82 6 287.64 6 0 6 C0 4.02 0 2.04 0 0 Z " fill="#FFFFFF" transform="translate(315,176)"/>
<path d="M0 0 C46.13513514 0 46.13513514 0 57.5625 10.3125 C66.05942274 19.68090199 68.57129692 28.74752027 68.4375 41.375 C68.42920166 42.38578613 68.42090332 43.39657227 68.41235352 44.43798828 C68.1469856 56.16139498 65.50062903 65.56630505 57 74 C40.58763243 87.4605029 20.36478167 85 0 85 C0 56.95 0 28.9 0 0 Z M14 12 C14 31.8 14 51.6 14 72 C31.12607345 72.2131825 31.12607345 72.2131825 45.7109375 64.3125 C53.04726778 55.43732971 53.94779248 45.16858167 53 34 C51.76725538 27.35389855 49.68390567 20.7952109 44.10546875 16.5625 C34.02217306 9.97749057 27.92550226 12 14 12 Z " fill="#FFFFFF" transform="translate(316,50)"/>
<path d="M0 0 C4.62 0 9.24 0 14 0 C14 11.22 14 22.44 14 34 C26.54 34 39.08 34 52 34 C52 22.78 52 11.56 52 0 C56.62 0 61.24 0 66 0 C66 28.05 66 56.1 66 85 C61.38 85 56.76 85 52 85 C52 72.46 52 59.92 52 47 C39.46 47 26.92 47 14 47 C14 59.54 14 72.08 14 85 C9.38 85 4.76 85 0 85 C0 56.95 0 28.9 0 0 Z " fill="#FFFFFF" transform="translate(535,50)"/>
<path d="M0 0 C4.95 0 9.9 0 15 0 C15 29.7 15 59.4 15 90 C11.04 90 7.08 90 3 90 C2.34 87.69 1.68 85.38 1 83 C0.18595703 83.63228516 0.18595703 83.63228516 -0.64453125 84.27734375 C-1.35996094 84.82519531 -2.07539062 85.37304688 -2.8125 85.9375 C-3.52019531 86.48277344 -4.22789062 87.02804688 -4.95703125 87.58984375 C-10.78732936 91.61419866 -19.21343592 90.46135263 -26 90 C-31.95213448 88.60732472 -35.36751012 85.09877593 -38.75 80.14453125 C-45.01881617 69.3895935 -45.40197901 56.29324668 -42.69140625 44.3515625 C-40.33360179 36.33236316 -35.99979772 30.66653181 -29 26 C-22.09412287 23.69804096 -11.67321014 23.61905078 -5.125 26.875 C-2 29 -2 29 0 31 C0 20.77 0 10.54 0 0 Z M-25 41 C-29.41481434 49.37292375 -30.5486063 58.70181969 -27.75 67.8125 C-26.16321865 72.06146429 -24.19732812 75.90133594 -20 78 C-15.15506973 78.58080348 -10.21141414 79.06208569 -5.72265625 76.90625 C-2.43666 74.29412613 -0.05770318 71.47601589 0.7890625 67.2421875 C1.69755403 57.58525902 2.35205562 47.44006953 -4 39.5 C-10.27324702 34.79506474 -19.5029519 35.77110059 -25 41 Z " fill="#FFFFFF" transform="translate(984,45)"/>
<path d="M0 0 C1.13985352 -0.0299707 1.13985352 -0.0299707 2.30273438 -0.06054688 C9.05706797 -0.05477887 14.1050563 1.94591911 19.26953125 6.296875 C28.04773221 16.63422114 27.0625 22.65015559 27.0625 37.4375 C13.2025 37.4375 -0.6575 37.4375 -14.9375 37.4375 C-11.40807131 47.34386531 -11.40807131 47.34386531 -3.9375 52.4375 C5.92632056 53.04957478 14.53249017 52.29650295 24.0625 49.4375 C24.0625 53.3975 24.0625 57.3575 24.0625 61.4375 C13.68179284 67.26160618 0.38165563 67.6062542 -10.9375 64.4375 C-18.19899435 61.77679978 -23.17935459 57.17975544 -26.9375 50.4375 C-31.36259213 38.75273715 -31.3262111 25.76378787 -26.3125 14.25 C-20.750889 4.03648388 -11.12595287 -0.10327889 0 0 Z M-10.9375 15.4375 C-13.29089578 19.2516242 -14.0435598 21.96779898 -14.9375 26.4375 C-5.6975 26.4375 3.5425 26.4375 13.0625 26.4375 C12.1089646 17.88202572 12.1089646 17.88202572 7.0625 12.4375 C1.00813054 9.41031527 -6.15860558 11.00828078 -10.9375 15.4375 Z " fill="#FFFFFF" transform="translate(718.9375,69.5625)"/>
<path d="M0 0 C0.84731689 -0.00990967 1.69463379 -0.01981934 2.56762695 -0.0300293 C10.10453654 0.07297242 16.20729586 1.95729586 21.6875 7.4375 C25.16841214 13.66123471 25.08119382 19.25544676 24.98046875 26.27734375 C24.97622391 27.39943741 24.97197906 28.52153107 24.96760559 29.67762756 C24.95088097 33.24366767 24.91323922 36.80913215 24.875 40.375 C24.85994517 42.80012202 24.84625817 45.22525294 24.83398438 47.65039062 C24.80099764 53.57964716 24.74925737 59.50847615 24.6875 65.4375 C21.3875 65.4375 18.0875 65.4375 14.6875 65.4375 C12.6875 61.4375 12.6875 61.4375 12.6875 57.4375 C12.16800781 57.84742188 11.64851562 58.25734375 11.11328125 58.6796875 C3.41830189 64.62516138 -3.10655573 66.92004091 -12.9375 66.26171875 C-18.97838715 65.35006048 -23.45564225 63.29144313 -27.3125 58.4375 C-30.22314729 52.71355148 -29.81760423 46.70394937 -29.3125 40.4375 C-27.71102948 35.63308844 -25.55309284 33.1703265 -21.3125 30.4375 C-13.69331179 26.97563761 -6.78915317 26.29464281 1.5 26.375 C2.38365234 26.37951172 3.26730469 26.38402344 4.17773438 26.38867188 C6.34768559 26.40040134 8.51760172 26.41833505 10.6875 26.4375 C10.45741867 24.85114978 10.20250488 23.26839116 9.9375 21.6875 C9.79828125 20.80578125 9.6590625 19.9240625 9.515625 19.015625 C8.48584558 15.80970794 7.38270112 14.44849912 4.6875 12.4375 C-1.9104384 11.2248543 -8.30956699 12.30224203 -14.47265625 14.78125 C-16.3125 15.4375 -16.3125 15.4375 -19.3125 15.4375 C-20.01215443 14.17331754 -20.69684763 12.90084598 -21.375 11.625 C-21.75785156 10.91730469 -22.14070312 10.20960937 -22.53515625 9.48046875 C-23.3125 7.4375 -23.3125 7.4375 -22.3125 4.4375 C-15.39980704 0.43963695 -7.78336767 0.04787346 0 0 Z M-13.3125 40.125 C-14.81870975 43.60811004 -14.95411259 46.71003637 -14.3125 50.4375 C-13.17248345 53.16232126 -13.17248345 53.16232126 -10.3125 54.4375 C-4.95552338 55.23979291 -0.68985812 55.12617906 4.1875 52.6875 C7.63122323 49.5881491 10.01966324 47.1123573 10.6875 42.4375 C10.70003115 40.10420032 10.70104991 37.77079399 10.6875 35.4375 C-2.13738949 34.66297462 -2.13738949 34.66297462 -13.3125 40.125 Z " fill="#FFFFFF" transform="translate(637.3125,69.5625)"/>
<path d="M0 0 C0.84731689 -0.00990967 1.69463379 -0.01981934 2.56762695 -0.0300293 C10.10453654 0.07297242 16.20729586 1.95729586 21.6875 7.4375 C25.16841214 13.66123471 25.08119382 19.25544676 24.98046875 26.27734375 C24.97622391 27.39943741 24.97197906 28.52153107 24.96760559 29.67762756 C24.95088097 33.24366767 24.91323922 36.80913215 24.875 40.375 C24.85994517 42.80012202 24.84625817 45.22525294 24.83398438 47.65039062 C24.80099764 53.57964716 24.74925737 59.50847615 24.6875 65.4375 C21.3875 65.4375 18.0875 65.4375 14.6875 65.4375 C12.6875 61.4375 12.6875 61.4375 12.6875 57.4375 C12.16800781 57.84742188 11.64851563 58.25734375 11.11328125 58.6796875 C3.41830189 64.62516138 -3.10655573 66.92004091 -12.9375 66.26171875 C-18.97838715 65.35006048 -23.45564225 63.29144313 -27.3125 58.4375 C-30.22314729 52.71355148 -29.81760423 46.70394937 -29.3125 40.4375 C-27.71102948 35.63308844 -25.55309284 33.1703265 -21.3125 30.4375 C-13.69331179 26.97563761 -6.78915317 26.29464281 1.5 26.375 C2.38365234 26.37951172 3.26730469 26.38402344 4.17773438 26.38867188 C6.34768559 26.40040134 8.51760172 26.41833505 10.6875 26.4375 C10.45741867 24.85114978 10.20250488 23.26839116 9.9375 21.6875 C9.79828125 20.80578125 9.6590625 19.9240625 9.515625 19.015625 C8.48584558 15.80970794 7.38270112 14.44849912 4.6875 12.4375 C-1.9104384 11.2248543 -8.30956699 12.30224203 -14.47265625 14.78125 C-16.3125 15.4375 -16.3125 15.4375 -19.3125 15.4375 C-20.01215443 14.17331754 -20.69684763 12.90084598 -21.375 11.625 C-21.75785156 10.91730469 -22.14070313 10.20960937 -22.53515625 9.48046875 C-23.3125 7.4375 -23.3125 7.4375 -22.3125 4.4375 C-15.39980704 0.43963695 -7.78336767 0.04787346 0 0 Z M-13.3125 40.125 C-14.81870975 43.60811004 -14.95411259 46.71003637 -14.3125 50.4375 C-13.17248345 53.16232126 -13.17248345 53.16232126 -10.3125 54.4375 C-4.95552338 55.23979291 -0.68985812 55.12617906 4.1875 52.6875 C7.63122323 49.5881491 10.01966324 47.1123573 10.6875 42.4375 C10.70003115 40.10420032 10.70104991 37.77079399 10.6875 35.4375 C-2.13738949 34.66297462 -2.13738949 34.66297462 -13.3125 40.125 Z " fill="#FFFFFF" transform="translate(456.3125,69.5625)"/>
<path d="M0 0 C0.84731689 -0.00990967 1.69463379 -0.01981934 2.56762695 -0.0300293 C10.10453654 0.07297242 16.20729586 1.95729586 21.6875 7.4375 C25.16841214 13.66123471 25.08119382 19.25544676 24.98046875 26.27734375 C24.97622391 27.39943741 24.97197906 28.52153107 24.96760559 29.67762756 C24.95088097 33.24366767 24.91323922 36.80913215 24.875 40.375 C24.85994517 42.80012202 24.84625817 45.22525294 24.83398438 47.65039062 C24.80099764 53.57964716 24.74925737 59.50847615 24.6875 65.4375 C21.3875 65.4375 18.0875 65.4375 14.6875 65.4375 C12.6875 61.4375 12.6875 61.4375 12.6875 57.4375 C12.16800781 57.84742188 11.64851563 58.25734375 11.11328125 58.6796875 C10.06720703 59.48792969 10.06720703 59.48792969 9 60.3125 C8.31550781 60.84617188 7.63101562 61.37984375 6.92578125 61.9296875 C1.75103614 65.41564145 -2.68225289 65.77635859 -8.75 65.75 C-9.48798828 65.76611328 -10.22597656 65.78222656 -10.98632812 65.79882812 C-16.5318039 65.80375744 -20.71888308 64.80317434 -24.95703125 60.9375 C-30.06019542 54.38360354 -29.85958892 48.51452186 -29.3125 40.4375 C-27.71102948 35.63308844 -25.55309284 33.1703265 -21.3125 30.4375 C-13.69331179 26.97563761 -6.78915317 26.29464281 1.5 26.375 C2.38365234 26.37951172 3.26730469 26.38402344 4.17773438 26.38867188 C6.34768559 26.40040134 8.51760172 26.41833505 10.6875 26.4375 C10.45741867 24.85114978 10.20250488 23.26839116 9.9375 21.6875 C9.79828125 20.80578125 9.6590625 19.9240625 9.515625 19.015625 C8.48584558 15.80970794 7.38270112 14.44849912 4.6875 12.4375 C-1.9104384 11.2248543 -8.30956699 12.30224203 -14.47265625 14.78125 C-16.3125 15.4375 -16.3125 15.4375 -19.3125 15.4375 C-20.01215443 14.17331754 -20.69684763 12.90084598 -21.375 11.625 C-21.75785156 10.91730469 -22.14070313 10.20960937 -22.53515625 9.48046875 C-23.3125 7.4375 -23.3125 7.4375 -22.3125 4.4375 C-15.39980704 0.43963695 -7.78336767 0.04787346 0 0 Z M-13.3125 40.125 C-14.81870975 43.60811004 -14.95411259 46.71003637 -14.3125 50.4375 C-13.17248345 53.16232126 -13.17248345 53.16232126 -10.3125 54.4375 C-4.95552338 55.23979291 -0.68985812 55.12617906 4.1875 52.6875 C7.63122323 49.5881491 10.01966324 47.1123573 10.6875 42.4375 C10.70003115 40.10420032 10.70104991 37.77079399 10.6875 35.4375 C-2.13738949 34.66297462 -2.13738949 34.66297462 -13.3125 40.125 Z " fill="#FFFFFF" transform="translate(1137.3125,69.5625)"/>
<path d="M0 0 C0.84731689 -0.00990967 1.69463379 -0.01981934 2.56762695 -0.0300293 C10.10453654 0.07297242 16.20729586 1.95729586 21.6875 7.4375 C25.16841214 13.66123471 25.08119382 19.25544676 24.98046875 26.27734375 C24.97622391 27.39943741 24.97197906 28.52153107 24.96760559 29.67762756 C24.95088097 33.24366767 24.91323922 36.80913215 24.875 40.375 C24.85994517 42.80012202 24.84625817 45.22525294 24.83398438 47.65039062 C24.80099764 53.57964716 24.74925737 59.50847615 24.6875 65.4375 C21.3875 65.4375 18.0875 65.4375 14.6875 65.4375 C12.6875 61.4375 12.6875 61.4375 12.6875 57.4375 C12.16800781 57.84742188 11.64851563 58.25734375 11.11328125 58.6796875 C10.06720703 59.48792969 10.06720703 59.48792969 9 60.3125 C8.31550781 60.84617188 7.63101562 61.37984375 6.92578125 61.9296875 C1.75103614 65.41564145 -2.68225289 65.77635859 -8.75 65.75 C-9.48798828 65.76611328 -10.22597656 65.78222656 -10.98632812 65.79882812 C-16.5318039 65.80375744 -20.71888308 64.80317434 -24.95703125 60.9375 C-30.06019542 54.38360354 -29.85958892 48.51452186 -29.3125 40.4375 C-27.71102948 35.63308844 -25.55309284 33.1703265 -21.3125 30.4375 C-13.69331179 26.97563761 -6.78915317 26.29464281 1.5 26.375 C2.38365234 26.37951172 3.26730469 26.38402344 4.17773438 26.38867188 C6.34768559 26.40040134 8.51760172 26.41833505 10.6875 26.4375 C10.45741867 24.85114978 10.20250488 23.26839116 9.9375 21.6875 C9.79828125 20.80578125 9.6590625 19.9240625 9.515625 19.015625 C8.48584558 15.80970794 7.38270112 14.44849912 4.6875 12.4375 C-1.9104384 11.2248543 -8.30956699 12.30224203 -14.47265625 14.78125 C-16.3125 15.4375 -16.3125 15.4375 -19.3125 15.4375 C-20.01215443 14.17331754 -20.69684763 12.90084598 -21.375 11.625 C-21.75785156 10.91730469 -22.14070312 10.20960937 -22.53515625 9.48046875 C-23.3125 7.4375 -23.3125 7.4375 -22.3125 4.4375 C-15.39980704 0.43963695 -7.78336767 0.04787346 0 0 Z M-13.3125 40.125 C-14.81870975 43.60811004 -14.95411259 46.71003637 -14.3125 50.4375 C-13.17248345 53.16232126 -13.17248345 53.16232126 -10.3125 54.4375 C-4.95552338 55.23979291 -0.68985812 55.12617906 4.1875 52.6875 C7.63122323 49.5881491 10.01966324 47.1123573 10.6875 42.4375 C10.70003115 40.10420032 10.70104991 37.77079399 10.6875 35.4375 C-2.13738949 34.66297462 -2.13738949 34.66297462 -13.3125 40.125 Z " fill="#FFFFFF" transform="translate(1033.3125,69.5625)"/>
<path d="M0 0 C4.95 0 9.9 0 15 0 C15.04533873 9.21492318 15.08196649 18.42977124 15.10362434 27.64478111 C15.11402349 31.92452543 15.12811128 36.20418891 15.15087891 40.48388672 C15.17274621 44.62064016 15.18459767 48.75731626 15.18975449 52.89412308 C15.19342547 54.46562542 15.2005934 56.03712393 15.21146011 57.60859299 C15.36154096 80.22948783 15.36154096 80.22948783 8.73046875 87.625 C3.94538216 91.42714555 -0.91944403 91.28090688 -6.75 91.1875 C-7.52988281 91.18685547 -8.30976562 91.18621094 -9.11328125 91.18554688 C-14.85942293 91.14057707 -14.85942293 91.14057707 -16 90 C-16.14355117 85.99779347 -16.04216403 82.00558317 -16 78 C-11.38 78 -6.76 78 -2 78 C-1.00992544 74.03970177 -0.8431298 70.82290357 -0.79467773 66.75292969 C-0.77982834 65.6694072 -0.77982834 65.6694072 -0.76467896 64.56399536 C-0.73316516 62.18332158 -0.7083467 59.80262787 -0.68359375 57.421875 C-0.66301547 55.76848846 -0.64201877 54.11510709 -0.62062073 52.46173096 C-0.56549026 48.11511417 -0.51604127 43.76845062 -0.46777344 39.42175293 C-0.41749243 34.9842514 -0.36184084 30.54681758 -0.30664062 26.109375 C-0.19916945 17.40630576 -0.09819651 8.70317883 0 0 Z " fill="#FFFFFF" transform="translate(670,71)"/>
<path d="M0 0 C4.95 0 9.9 0 15 0 C15 29.7 15 59.4 15 90 C10.05 90 5.1 90 0 90 C0 60.3 0 30.6 0 0 Z " fill="#FFFFFF" transform="translate(1089,45)"/>
<path d="M0 0 C4.95 0 9.9 0 15 0 C15 29.7 15 59.4 15 90 C10.05 90 5.1 90 0 90 C0 60.3 0 30.6 0 0 Z " fill="#FFFFFF" transform="translate(1066,45)"/>
<path d="M0 0 C-0.33 4.62 -0.66 9.24 -1 14 C-2.815 13.896875 -4.63 13.79375 -6.5 13.6875 C-11.7524119 13.69370119 -15.01764526 14.4503214 -19.37890625 17.3203125 C-24.22450997 22.34105853 -24.46195364 27.76294301 -24.51171875 34.3359375 C-24.52966995 35.21528961 -24.54762115 36.09464172 -24.56611633 37.00064087 C-24.62002812 39.79204605 -24.65405329 42.58328211 -24.6875 45.375 C-24.72069 47.27476302 -24.75518121 49.17450377 -24.79101562 51.07421875 C-24.87574349 55.71602344 -24.94264561 60.35777965 -25 65 C-29.95 65 -34.9 65 -40 65 C-40 43.88 -40 22.76 -40 1 C-36.04 1 -32.08 1 -28 1 C-27.34 3.64 -26.68 6.28 -26 9 C-25.46890625 8.51789063 -24.9378125 8.03578125 -24.390625 7.5390625 C-23.68421875 6.90742187 -22.9778125 6.27578125 -22.25 5.625 C-21.55390625 4.99851562 -20.8578125 4.37203125 -20.140625 3.7265625 C-13.86822025 -1.33256688 -7.86758617 -0.14569604 0 0 Z " fill="#FFFFFF" transform="translate(791,70)"/>
<path d="M0 0 C-0.33 4.62 -0.66 9.24 -1 14 C-2.815 13.896875 -4.63 13.79375 -6.5 13.6875 C-11.7524119 13.69370119 -15.01764526 14.4503214 -19.37890625 17.3203125 C-24.22450997 22.34105853 -24.46195364 27.76294301 -24.51171875 34.3359375 C-24.52966995 35.21528961 -24.54762115 36.09464172 -24.56611633 37.00064087 C-24.62002812 39.79204605 -24.65405329 42.58328211 -24.6875 45.375 C-24.72069 47.27476302 -24.75518121 49.17450377 -24.79101562 51.07421875 C-24.87574349 55.71602344 -24.94264561 60.35777965 -25 65 C-29.95 65 -34.9 65 -40 65 C-40 43.88 -40 22.76 -40 1 C-36.04 1 -32.08 1 -28 1 C-27.34 3.64 -26.68 6.28 -26 9 C-25.46890625 8.51789063 -24.9378125 8.03578125 -24.390625 7.5390625 C-23.68421875 6.90742187 -22.9778125 6.27578125 -22.25 5.625 C-21.55390625 4.99851562 -20.8578125 4.37203125 -20.140625 3.7265625 C-13.86822025 -1.33256688 -7.86758617 -0.14569604 0 0 Z " fill="#FFFFFF" transform="translate(430,70)"/>
<path d="M0 0 C4.95927776 3.71945832 8.25466505 7.7615375 9.5 13.875 C10.04567426 20.77388175 10.35073765 27.85067525 6.5 33.875 C2.68649342 37.99502957 -0.66316246 40.67805 -6.42578125 41.078125 C-18.01528879 41.23853341 -18.01528879 41.23853341 -22.5 37.875 C-29.05685883 31.02010213 -29.9675296 25.59114368 -29.8125 16.328125 C-29.2486714 10.09781902 -27.09673792 6.0506427 -22.4375 1.9375 C-16.05021629 -2.54718856 -7.27752708 -2.33920513 0 0 Z M-20.375 10.3125 C-22.38163038 16.66682954 -22.95066701 23.91501762 -19.8125 30 C-17.32992274 33.08644741 -16.36291301 34.17265218 -12.5 34.875 C-7.28955786 34.96397327 -7.28955786 34.96397327 -2.91015625 32.5703125 C1.27208798 27.69708879 1.80082308 23.60638066 1.7109375 17.44921875 C1.38952099 13.52674695 0.57001726 11.25602819 -1.5 7.875 C-8.22500777 3.34292955 -15.18709144 3.56821887 -20.375 10.3125 Z " fill="#FFFFFF" transform="translate(809.5,207.125)"/>
<path d="M0 0 C3.125 1.5 3.125 1.5 5 3 C5 2.01 5 1.02 5 0 C6.98 0 8.96 0 11 0 C11 14.85 11 29.7 11 45 C8.69 45 6.38 45 4 45 C3.67 40.05 3.34 35.1 3 30 C2.01 30.66 1.02 31.32 0 32 C-4.63444842 32.67552977 -8.706854 32.63281613 -12.9375 30.5625 C-17.16240542 25.31337509 -18.31036191 19.98763763 -17.9375 13.3125 C-17.32147424 8.47906708 -16.1936683 5.66332541 -13 2 C-8.76146751 -0.82568832 -4.97857829 -0.5470094 0 0 Z M-7.3125 6.75 C-10.60336709 11.13782279 -10.49928659 15.72975263 -10 21 C-9.07979268 24.03824575 -9.07979268 24.03824575 -7 26 C-4.15372409 27.33550847 -4.15372409 27.33550847 -1 27 C2.12083474 25.38300481 2.12083474 25.38300481 4 22 C4.78723605 17.0389275 4.57758058 12.60439049 2.875 7.875 C1.04745407 5.78218289 1.04745407 5.78218289 -1.9375 4.9375 C-5.07614294 4.70179065 -5.07614294 4.70179065 -7.3125 6.75 Z " fill="#FFFFFF" transform="translate(607,216)"/>
<path d="M0 0 C19 0 19 0 25 3 C27.96136463 7.34333479 28.55690438 10.80222575 28 16 C26.40093249 20.15757553 24.85311765 22.7122114 21 25 C16.36297289 26.5456757 11.87528349 26.05735628 7 26 C7 30.95 7 35.9 7 41 C4.69 41 2.38 41 0 41 C0 27.47 0 13.94 0 0 Z M7 6 C7 10.62 7 15.24 7 20 C13.87695403 20.16952361 13.87695403 20.16952361 19 17 C20.31968178 15.89471558 20.31968178 15.89471558 20.25 13.125 C20.27670732 10.05141137 20.27670732 10.05141137 18.6875 8.1875 C14.71646086 5.39306505 12.13944167 6 7 6 Z " fill="#FFFFFF" transform="translate(527,206)"/>
<path d="M0 0 C1.98 0 3.96 0 6 0 C6.66 0.99 7.32 1.98 8 3 C8.48984375 2.50886719 8.9796875 2.01773438 9.484375 1.51171875 C13.00679923 -0.60501755 16.27782464 -0.32329744 20.25 -0.1875 C24.08625 -0.0946875 24.08625 -0.0946875 28 0 C28 10.23 28 20.46 28 31 C25.36 31 22.72 31 20 31 C19.505 19.12 19.505 19.12 19 7 C12.60259179 7.40011921 12.60259179 7.40011921 10.09448242 9.27075195 C8.6841951 11.49896188 8.5720334 13.03815114 8.48828125 15.66796875 C8.45283203 16.56064453 8.41738281 17.45332031 8.38085938 18.37304688 C8.34702148 19.76620117 8.34702148 19.76620117 8.3125 21.1875 C8.27833984 22.12787109 8.24417969 23.06824219 8.20898438 24.03710938 C8.12651782 26.35795393 8.05736597 28.67842148 8 31 C5.36 31 2.72 31 0 31 C0 20.77 0 10.54 0 0 Z " fill="#FFFFFF" transform="translate(711,216)"/>
<path d="M0 0 C1.1034375 -0.02835938 2.206875 -0.05671875 3.34375 -0.0859375 C7.15644796 0.4708674 8.76973533 1.71398117 11.5 4.375 C12.8308911 7.03678221 12.61268993 9.06239396 12.59765625 12.0390625 C12.59443359 13.16054687 12.59121094 14.28203125 12.58789062 15.4375 C12.57951172 16.613125 12.57113281 17.78875 12.5625 19 C12.55798828 20.18335938 12.55347656 21.36671875 12.54882812 22.5859375 C12.53701467 25.51567507 12.52054258 28.44531272 12.5 31.375 C10.52 31.375 8.54 31.375 6.5 31.375 C6.17 30.715 5.84 30.055 5.5 29.375 C4.68015625 30.10589844 4.68015625 30.10589844 3.84375 30.8515625 C1.00668214 32.69565661 -0.64342289 32.7776641 -4 32.75 C-5.40765625 32.76160156 -5.40765625 32.76160156 -6.84375 32.7734375 C-9.95537555 32.30669367 -11.30897916 31.62104647 -13.5 29.375 C-14.1796875 27.25390625 -14.1796875 27.25390625 -14.375 24.9375 C-14.45492187 24.17566406 -14.53484375 23.41382813 -14.6171875 22.62890625 C-14.4810432 20.01039761 -13.92955977 18.56386692 -12.5 16.375 C-6.61930846 12.8716093 -1.21633385 13.04707773 5.5 13.375 C4.84 11.395 4.18 9.415 3.5 7.375 C-1.44367454 6.16922572 -4.70862412 6.7459322 -9.5 8.375 C-10.16 6.395 -10.82 4.415 -11.5 2.375 C-7.56526665 0.53976989 -4.3312028 0.05059816 0 0 Z M-6.5 20.375 C-6.75030977 22.79119823 -6.75030977 22.79119823 -6.5 25.375 C-3.68467943 27.66492684 -3.68467943 27.66492684 -0.5 27.3125 C2.64368235 26.63389958 2.64368235 26.63389958 4.375 24.0625 C5.75742539 21.24561693 5.75742539 21.24561693 5.5 17.375 C0.74792529 16.94299321 -2.28210698 18.39010917 -6.5 20.375 Z " fill="#FFFFFF" transform="translate(755.5,215.625)"/>
<path d="M0 0 C1.1034375 -0.02835938 2.206875 -0.05671875 3.34375 -0.0859375 C7.15644796 0.4708674 8.76973533 1.71398117 11.5 4.375 C12.8308911 7.03678221 12.61268993 9.06239396 12.59765625 12.0390625 C12.59443359 13.16054687 12.59121094 14.28203125 12.58789062 15.4375 C12.57951172 16.613125 12.57113281 17.78875 12.5625 19 C12.55798828 20.18335938 12.55347656 21.36671875 12.54882812 22.5859375 C12.53701467 25.51567507 12.52054258 28.44531272 12.5 31.375 C10.52 31.375 8.54 31.375 6.5 31.375 C6.17 30.715 5.84 30.055 5.5 29.375 C4.68015625 30.10589844 4.68015625 30.10589844 3.84375 30.8515625 C1.00668214 32.69565661 -0.64342289 32.7776641 -4 32.75 C-5.40765625 32.76160156 -5.40765625 32.76160156 -6.84375 32.7734375 C-9.95537555 32.30669367 -11.30897916 31.62104647 -13.5 29.375 C-14.1796875 27.25390625 -14.1796875 27.25390625 -14.375 24.9375 C-14.45492187 24.17566406 -14.53484375 23.41382813 -14.6171875 22.62890625 C-14.4810432 20.01039761 -13.92955977 18.56386692 -12.5 16.375 C-6.61930846 12.8716093 -1.21633385 13.04707773 5.5 13.375 C4.84 11.395 4.18 9.415 3.5 7.375 C-1.44367454 6.16922572 -4.70862412 6.7459322 -9.5 8.375 C-10.16 6.395 -10.82 4.415 -11.5 2.375 C-7.56526665 0.53976989 -4.3312028 0.05059816 0 0 Z M-6.5 20.375 C-6.75030977 22.79119823 -6.75030977 22.79119823 -6.5 25.375 C-3.68467943 27.66492684 -3.68467943 27.66492684 -0.5 27.3125 C2.64368235 26.63389958 2.64368235 26.63389958 4.375 24.0625 C5.75742539 21.24561693 5.75742539 21.24561693 5.5 17.375 C0.74792529 16.94299321 -2.28210698 18.39010917 -6.5 20.375 Z " fill="#FFFFFF" transform="translate(677.5,215.625)"/>
<path d="M0 0 C3.42088094 3.42088094 4.65715633 6.85312458 5.5625 11.5625 C5.5625 13.2125 5.5625 14.8625 5.5625 16.5625 C-1.3675 16.5625 -8.2975 16.5625 -15.4375 16.5625 C-14.7775 18.8725 -14.1175 21.1825 -13.4375 23.5625 C-7.5260256 24.33563045 -2.3060408 24.71069277 3.5625 23.5625 C3.5625 25.2125 3.5625 26.8625 3.5625 28.5625 C-1.63247272 31.73016629 -7.56804089 31.1538261 -13.4375 30.5625 C-17.95598738 28.45906622 -20.49581307 26.1612322 -22.4375 21.5625 C-24.07646352 15.04476135 -23.39766647 9.59157375 -20.4375 3.5625 C-15.33780822 -2.81211472 -7.19131391 -3.00727673 0 0 Z M-12.625 4.75 C-14.95464237 6.744511 -14.95464237 6.744511 -15.4375 11.5625 C-11.1475 11.5625 -6.8575 11.5625 -2.4375 11.5625 C-2.7675 9.5825 -3.0975 7.6025 -3.4375 5.5625 C-6.8990609 3.25479273 -8.86154069 2.70697923 -12.625 4.75 Z " fill="#FFFFFF" transform="translate(928.4375,217.4375)"/>
<path d="M0 0 C1.98 0 3.96 0 6 0 C6.66 0.66 7.32 1.32 8 2 C8.55816406 1.67773438 9.11632812 1.35546875 9.69140625 1.0234375 C13.67460517 -0.74237996 17.7305181 -0.58031793 22 0 C24.93423195 1.79646854 26.47205355 2.9441071 28 6 C28.084915 7.8863912 28.107193 9.77578515 28.09765625 11.6640625 C28.09443359 12.78554687 28.09121094 13.90703125 28.08789062 15.0625 C28.07951172 16.238125 28.07113281 17.41375 28.0625 18.625 C28.05798828 19.80835938 28.05347656 20.99171875 28.04882812 22.2109375 C28.03701467 25.14067507 28.02054258 28.07031272 28 31 C25.69 31 23.38 31 21 31 C20.97494385 30.37955811 20.9498877 29.75911621 20.92407227 29.11987305 C20.80803279 26.30887603 20.68534241 23.49820759 20.5625 20.6875 C20.52318359 19.71103516 20.48386719 18.73457031 20.44335938 17.72851562 C20.40146484 16.79072266 20.35957031 15.85292969 20.31640625 14.88671875 C20.27974854 14.02264404 20.24309082 13.15856934 20.20532227 12.26831055 C20.07252646 9.8352174 20.07252646 9.8352174 19 7 C16.19954954 6.14349347 16.19954954 6.14349347 13 6 C10.61776143 7.24800814 10.61776143 7.24800814 9 10 C8.36077623 13.57570539 8.30311111 17.12395936 8.25 20.75 C8.22035156 21.73355469 8.19070313 22.71710938 8.16015625 23.73046875 C8.08957589 26.15372776 8.03682299 28.57603154 8 31 C5.36 31 2.72 31 0 31 C0 20.77 0 10.54 0 0 Z " fill="#FFFFFF" transform="translate(876,216)"/>
<path d="M0 0 C1.98 0 3.96 0 6 0 C6.66 0.66 7.32 1.32 8 2 C8.55816406 1.67773438 9.11632812 1.35546875 9.69140625 1.0234375 C13.67460517 -0.74237996 17.7305181 -0.58031793 22 0 C24.93423195 1.79646854 26.47205355 2.9441071 28 6 C28.084915 7.8863912 28.107193 9.77578515 28.09765625 11.6640625 C28.09443359 12.78554687 28.09121094 13.90703125 28.08789062 15.0625 C28.07951172 16.238125 28.07113281 17.41375 28.0625 18.625 C28.05798828 19.80835938 28.05347656 20.99171875 28.04882812 22.2109375 C28.03701467 25.14067507 28.02054258 28.07031272 28 31 C25.69 31 23.38 31 21 31 C20.97494385 30.37955811 20.9498877 29.75911621 20.92407227 29.11987305 C20.80803279 26.30887603 20.68534241 23.49820759 20.5625 20.6875 C20.52318359 19.71103516 20.48386719 18.73457031 20.44335938 17.72851562 C20.40146484 16.79072266 20.35957031 15.85292969 20.31640625 14.88671875 C20.27974854 14.02264404 20.24309082 13.15856934 20.20532227 12.26831055 C20.07252646 9.8352174 20.07252646 9.8352174 19 7 C16.19954954 6.14349347 16.19954954 6.14349347 13 6 C10.61776143 7.24800814 10.61776143 7.24800814 9 10 C8.36077623 13.57570539 8.30311111 17.12395936 8.25 20.75 C8.22035156 21.73355469 8.19070313 22.71710938 8.16015625 23.73046875 C8.08957589 26.15372776 8.03682299 28.57603154 8 31 C5.36 31 2.72 31 0 31 C0 20.77 0 10.54 0 0 Z " fill="#FFFFFF" transform="translate(822,216)"/>
<path d="M0 0 C2.31 0 4.62 0 7 0 C7.02505615 0.60996826 7.0501123 1.21993652 7.07592773 1.84838867 C7.1924058 4.62827898 7.31489632 7.4078734 7.4375 10.1875 C7.47681641 11.14720703 7.51613281 12.10691406 7.55664062 13.09570312 C7.59853516 14.02705078 7.64042969 14.95839844 7.68359375 15.91796875 C7.72025146 16.77156982 7.75690918 17.6251709 7.79467773 18.50463867 C8.00531094 21.06454594 8.44841536 23.49333243 9 26 C12.19384754 26.21776233 14.40422845 26.28983481 17.3125 24.875 C21.03663638 20.73707069 20.2847443 13.49797913 20.5625 8.125 C20.60568359 7.34125 20.64886719 6.5575 20.69335938 5.75 C20.79853351 3.83349351 20.89967925 1.91676667 21 0 C23.31 0 25.62 0 28 0 C28 10.23 28 20.46 28 31 C26.02 31 24.04 31 22 31 C22 30.34 22 29.68 22 29 C21.401875 29.495 20.80375 29.99 20.1875 30.5 C15.49700505 32.70729174 11.10011167 32.70451993 6 32 C2.38308725 29.90219061 1.31708591 28.95125774 0 25 C-0.08266486 23.08093083 -0.10740663 21.15910526 -0.09765625 19.23828125 C-0.09443359 18.12001953 -0.09121094 17.00175781 -0.08789062 15.84960938 C-0.07951172 14.68236328 -0.07113281 13.51511719 -0.0625 12.3125 C-0.05573242 10.54422852 -0.05573242 10.54422852 -0.04882812 8.74023438 C-0.03703273 5.82677211 -0.0205727 2.91341137 0 0 Z " fill="#FFFFFF" transform="translate(622,216)"/>
<path d="M0 0 C1.04027344 -0.01417969 2.08054687 -0.02835938 3.15234375 -0.04296875 C6.01296613 0.18357718 7.63920151 0.71016381 10.0625 2.1875 C9.7325 3.8375 9.4025 5.4875 9.0625 7.1875 C2.1325 6.6925 2.1325 6.6925 -4.9375 6.1875 C-4.6075 7.5075 -4.2775 8.8275 -3.9375 10.1875 C-1.27552558 11.84913713 -1.27552558 11.84913713 1.9375 13.1875 C8.94682585 16.29524929 8.94682585 16.29524929 11.0625 20.1875 C11.47084242 23.0514907 11.0208612 25.46842868 10.0625 28.1875 C7.01628175 31.66889229 5.25643719 32.08070287 0.65625 32.4921875 C-9.20540201 32.67556533 -9.20540201 32.67556533 -12.9375 30.1875 C-13.125 27.0625 -13.125 27.0625 -12.9375 24.1875 C-11.1740625 24.7134375 -11.1740625 24.7134375 -9.375 25.25 C-5.19058347 26.31661598 -2.13858938 26.06272695 2.0625 25.1875 C2.3925 23.8675 2.7225 22.5475 3.0625 21.1875 C2.2375 20.960625 1.4125 20.73375 0.5625 20.5 C-4.86204928 18.46579402 -9.68369668 16.06820498 -12.9375 11.1875 C-12.61175569 5.10693958 -12.61175569 5.10693958 -10.5625 2.3125 C-7.18118319 -0.02841164 -3.97843725 0.02458861 0 0 Z " fill="#FFFFFF" transform="translate(567.9375,215.8125)"/>
<path d="M0 0 C1.65 0 3.3 0 5 0 C5 2.31 5 4.62 5 7 C7.97 7 10.94 7 14 7 C14 8.65 14 10.3 14 12 C11.03 12 8.06 12 5 12 C5.33 18.93 5.66 25.86 6 33 C8.64 33 11.28 33 14 33 C14 34.98 14 36.96 14 39 C12.27305325 39.13609913 10.54295278 39.23249228 8.8125 39.3125 C7.84957031 39.37050781 6.88664063 39.42851562 5.89453125 39.48828125 C3 39 3 39 0.15625 37.1875 C-3.04562946 32.45428689 -2.54422131 28.25950638 -2.3125 22.6875 C-2.28994141 21.66076172 -2.26738281 20.63402344 -2.24414062 19.57617188 C-2.18537575 17.0492821 -2.10327849 14.52539745 -2 12 C-3.32 12 -4.64 12 -6 12 C-6 10.68 -6 9.36 -6 8 C-4.68 7.67 -3.36 7.34 -2 7 C-1.34 4.69 -0.68 2.38 0 0 Z " fill="#FFFFFF" transform="translate(696,209)"/>
<path d="M0 0 C2.64 0 5.28 0 8 0 C8 14.19 8 28.38 8 43 C5.36 43 2.72 43 0 43 C0 28.81 0 14.62 0 0 Z " fill="#FFFFFF" transform="translate(853,204)"/>
<path d="M0 0 C2.625 1.5 2.625 1.5 4 4 C4.56078904 7.60085594 4.27405612 10.84287415 3.4375 14.375 C1.02619615 17.10082175 -1.49102309 17.41517052 -5 18 C-8.39618012 17.34688844 -10.30915034 16.62176469 -12.875 14.3125 C-14.45702747 11.06055464 -14.31890363 8.5717206 -14 5 C-11.62623328 -1.4430811 -6.04595441 -0.67285622 0 0 Z " fill="#FFFFFF" transform="translate(502,119)"/>
<path d="M0 0 C2.64 0 5.28 0 8 0 C8 10.23 8 20.46 8 31 C5.36 31 2.72 31 0 31 C0 20.77 0 10.54 0 0 Z " fill="#FFFFFF" transform="translate(864,216)"/>
<path d="M0 0 C2.64 0 5.28 0 8 0 C8 10.23 8 20.46 8 31 C5.36 31 2.72 31 0 31 C0 20.77 0 10.54 0 0 Z " fill="#FFFFFF" transform="translate(654,216)"/>
<path d="M0 0 C2.64 0 5.28 0 8 0 C8 10.23 8 20.46 8 31 C5.36 31 2.72 31 0 31 C0 20.77 0 10.54 0 0 Z " fill="#FFFFFF" transform="translate(580,216)"/>
<path d="M0 0 C0.78246094 -0.02578125 1.56492187 -0.0515625 2.37109375 -0.078125 C4.5625 0.25 4.5625 0.25 6.32421875 1.484375 C7.88561632 3.71072106 7.96452025 5.04797547 7.9375 7.75 C7.94523438 8.5234375 7.95296875 9.296875 7.9609375 10.09375 C7.47123362 12.74391216 6.65501521 13.60227063 4.5625 15.25 C1.13618393 16.58245625 -0.57022597 16.21681851 -4.1875 15.3125 C-7.4375 13.25 -7.4375 13.25 -8.17578125 11.40625 C-8.66832141 8.22550873 -8.64690222 5.87820665 -7.625 2.8125 C-5.48924462 0.00229555 -3.33847379 0.06578273 0 0 Z " fill="#FFFFFF" transform="translate(677.4375,46.75)"/>
<path d="M0 0 C3 0.125 3 0.125 4 1.125 C4.125 3.625 4.125 3.625 4 6.125 C3 7.125 3 7.125 0 7.25 C-3 7.125 -3 7.125 -4 6.125 C-4.125 3.625 -4.125 3.625 -4 1.125 C-3 0.125 -3 0.125 0 0 Z " fill="#FFFFFF" transform="translate(868,203.875)"/>
<path d="M0 0 C3 0.125 3 0.125 4 1.125 C4.125 3.625 4.125 3.625 4 6.125 C3 7.125 3 7.125 0 7.25 C-3 7.125 -3 7.125 -4 6.125 C-4.125 3.625 -4.125 3.625 -4 1.125 C-3 0.125 -3 0.125 0 0 Z " fill="#FFFFFF" transform="translate(735,203.875)"/>
<path d="M0 0 C3 0.125 3 0.125 4 1.125 C4.125 3.625 4.125 3.625 4 6.125 C3 7.125 3 7.125 0 7.25 C-3 7.125 -3 7.125 -4 6.125 C-4.125 3.625 -4.125 3.625 -4 1.125 C-3 0.125 -3 0.125 0 0 Z " fill="#FFFFFF" transform="translate(658,203.875)"/>
<path d="M0 0 C3 0.125 3 0.125 4 1.125 C4.125 3.625 4.125 3.625 4 6.125 C3 7.125 3 7.125 0 7.25 C-3 7.125 -3 7.125 -4 6.125 C-4.125 3.625 -4.125 3.625 -4 1.125 C-3 0.125 -3 0.125 0 0 Z " fill="#FFFFFF" transform="translate(584,203.875)"/>
<path d="" fill="#FFFFFF" transform="translate(0,0)"/>
<path d="" fill="#FFFFFF" transform="translate(0,0)"/>
<path d="" fill="#FFFFFF" transform="translate(0,0)"/>
<path d="" fill="#FFFFFF" transform="translate(0,0)"/>
</svg>
